<?xml version="1.0" encoding="UTF-8" standalone="no"?>
<!-- Created with Inkscape (http://www.inkscape.org/) -->

<svg
   width="240mm"
   height="420mm"
   viewBox="0 0 240 420"
   version="1.1"
   id="svg27"
   inkscape:version="1.3 (0e150ed6c4, 2023-07-21)"
   sodipodi:docname="Jiriki_ver_23.svg"
   style="shape-rendering:crispEdges"
   xmlns:inkscape="http://www.inkscape.org/namespaces/inkscape"
   xmlns:sodipodi="http://sodipodi.sourceforge.net/DTD/sodipodi-0.dtd"
   xmlns:xlink="http://www.w3.org/1999/xlink"
   xmlns="http://www.w3.org/2000/svg"
   xmlns:svg="http://www.w3.org/2000/svg"
   xmlns:rdf="http://www.w3.org/1999/02/22-rdf-syntax-ns#"
   xmlns:cc="http://creativecommons.org/ns#"
   xmlns:dc="http://purl.org/dc/elements/1.1/">
  <defs
     id="defs21">
    <linearGradient
       id="linearGradient29"
       inkscape:collect="always">
      <stop
         style="stop-color:#1d1d66;stop-opacity:1;"
         offset="0"
         id="stop29" />
      <stop
         style="stop-color:#0e4479;stop-opacity:0.88235294;"
         offset="0.5"
         id="stop1" />
      <stop
         style="stop-color:#008ab5;stop-opacity:0.57999998;"
         offset="1"
         id="stop30" />
    </linearGradient>
    <inkscape:perspective
       sodipodi:type="inkscape:persp3d"
       inkscape:vp_x="0 : 202.49997 : 1"
       inkscape:vp_y="0 : 999.99992 : 0"
       inkscape:vp_z="734.00003 : 202.49997 : 1"
       inkscape:persp3d-origin="367.00002 : 135 : 1"
       id="perspective22" />
    <rect
       x="408.78616"
       y="1489.6445"
       width="1517.3588"
       height="138.57158"
       id="rect3" />
    <rect
       x="408.78616"
       y="1489.6445"
       width="1517.3588"
       height="138.57158"
       id="rect3-3" />
    <rect
       x="408.78616"
       y="1489.6445"
       width="1517.3588"
       height="138.57158"
       id="rect4" />
    <linearGradient
       inkscape:collect="always"
       xlink:href="#linearGradient29"
       id="linearGradient30"
       x1="-100"
       y1="236.50002"
       x2="828"
       y2="236.50002"
       gradientUnits="userSpaceOnUse"
       gradientTransform="matrix(0.26944027,0,0,0.62281012,25.939063,47.718827)" />
  </defs>
  <sodipodi:namedview
     id="base"
     pagecolor="#ffffff"
     bordercolor="#666666"
     borderopacity="1.0"
     inkscape:pageopacity="0.0"
     inkscape:pageshadow="2"
     inkscape:zoom="0.55107027"
     inkscape:cx="446.40405"
     inkscape:cy="824.7587"
     inkscape:document-units="mm"
     inkscape:current-layer="g27"
     showgrid="false"
     inkscape:window-width="1366"
     inkscape:window-height="705"
     inkscape:window-x="-8"
     inkscape:window-y="-8"
     inkscape:window-maximized="1"
     inkscape:showpageshadow="false"
     inkscape:pagecheckerboard="0"
     inkscape:deskcolor="#d1d1d1"
     showguides="true"
     showborder="true"
     borderlayer="false"
     shape-rendering="crispEdges"
     fit-margin-left="9.8"
     fit-margin-top="10"
     fit-margin-right="10"
     fit-margin-bottom="10"
     inkscape:guide-bbox="true">
    <sodipodi:guide
       position="-0.91659322,442.58034"
       orientation="1,0"
       id="guide1"
       inkscape:locked="false" />
    <sodipodi:guide
       position="151.97982,350.48407"
       orientation="0,-1"
       id="guide2"
       inkscape:locked="false" />
    <sodipodi:guide
       position="-100.88641,430.22162"
       orientation="1,0"
       id="guide27"
       inkscape:locked="false" />
    <sodipodi:guide
       position="81.147763,505.88643"
       orientation="0,-1"
       id="guide28"
       inkscape:locked="false" />
    <sodipodi:guide
       position="827.9265,213.0965"
       orientation="1,0"
       id="guide29"
       inkscape:locked="false" />
    <sodipodi:guide
       position="144.36173,341.17788"
       orientation="0,1"
       id="guide4042"
       inkscape:locked="false" />
    <sodipodi:guide
       position="2.4006315,134.80497"
       orientation="0,-1"
       id="guide3"
       inkscape:locked="false" />
  </sodipodi:namedview>
  <metadata
     id="metadata24">
    <rdf:RDF>
      <cc:Work
         rdf:about="">
        <dc:format>image/svg+xml</dc:format>
        <dc:type
           rdf:resource="http://purl.org/dc/dcmitype/StillImage" />
      </cc:Work>
    </rdf:RDF>
  </metadata>
  <g
     inkscape:groupmode="layer"
     id="layer2"
     inkscape:label="Sfondo da non esportare x web"
     style="display:none"
     transform="translate(0,15)" />
  <g
     id="g27"
     inkscape:label="Sfondo da esportare x web"
     style="display:inline"
     inkscape:groupmode="layer"
     transform="translate(0,15)">
    <rect
       style="opacity:1;fill:url(#linearGradient30);fill-opacity:1;stroke:#000000;stroke-width:0;stroke-linejoin:round;stroke-miterlimit:4;stroke-dasharray:none;paint-order:markers stroke fill"
       id="rect27"
       width="249.7459"
       height="419.71564"
       x="-0.85763329"
       y="-14.844412"
       inkscape:label="rettangolo_desktop" />
  </g>
  <g
     inkscape:label="Livello 1"
     inkscape:groupmode="layer"
     id="layer1"
     style="display:inline"
     transform="translate(0,15)" />
  <g
     inkscape:groupmode="layer"
     id="g3"
     inkscape:label="Agenzia creativa copia"
     style="display:inline"
     transform="translate(0,15)">
    <path
       style="display:inline;fill:#ffffff;fill-opacity:1;stroke-width:0.32741"
       d="m 110.93712,167.33458 c -2.66514,-0.95746 -3.46645,-1.45738 -5.66285,-3.53293 -1.12247,-1.0607 -2.03476,-2.35879 -2.77645,-3.95058 -1.03284,-2.21664 -1.1051,-2.59544 -1.1112,-5.82558 -0.007,-3.3393 0.0346,-3.53798 1.22325,-5.94312 1.5406,-3.11717 4.98923,-6.477 9.7336,-9.48293 1.79989,-1.1404 3.27398,-2.19766 3.27574,-2.34952 0.001,-0.15185 -1.10855,-1.47279 -2.46738,-2.93543 -1.64548,-1.77121 -2.90295,-3.5232 -3.76522,-5.24595 -1.15937,-2.31637 -1.29463,-2.84055 -1.29463,-5.0173 0,-2.86701 0.60862,-4.31437 2.55278,-6.07081 1.63799,-1.47982 3.2759,-2.04063 5.9599,-2.04063 3.76437,0 6.16611,1.38177 7.71516,4.43867 1.10564,2.18187 1.13078,5.58792 0.053,7.18718 -2.36085,3.50325 -6.74595,3.47082 -8.73298,-0.0646 -0.78186,-1.39113 -0.85598,-2.34769 -0.22266,-2.87331 0.68396,-0.56763 1.44207,-0.10108 1.85148,1.13944 0.44666,1.35338 1.43301,2.10023 2.77377,2.10023 2.30802,0 3.46967,-2.13431 2.79719,-5.13928 -1.37507,-6.14445 -10.98032,-6.30659 -12.42452,-0.20975 -0.48271,2.03788 0.15608,4.64972 1.74454,7.13288 1.42227,2.22335 5.3461,6.4014 6.01191,6.4014 1.03132,0 7.56133,-3.89285 10.63557,-6.34037 2.83076,-2.25368 5.15024,-6.476 5.15024,-9.37532 0,-2.84659 -2.07458,-6.7776 -4.69581,-8.89782 -2.96458,-2.39795 -10.43703,-7.23514 -11.18358,-7.23955 -0.18008,-7.2e-4 -1.80076,0.82493 -3.60152,1.83553 -3.67184,2.06067 -6.20887,2.84249 -9.22399,2.84249 -3.54492,0 -7.065571,-1.89466 -8.432487,-4.53799 -1.526456,-2.95181 -0.569147,-5.462805 2.75931,-7.237655 2.002587,-1.06784 2.311727,-1.13446 5.238577,-1.12886 2.88223,0.006 3.31453,0.0967 5.89338,1.2426 1.53064,0.68017 3.70021,1.81433 4.82127,2.52036 1.12106,0.70603 2.22821,1.283685 2.46031,1.283685 0.59491,0 4.5077,-3.220435 4.49328,-3.698225 -0.007,-0.21691 -1.44933,-1.92511 -3.20618,-3.796 l -3.19429,-3.40159 -3.75128,1.84982 c -5.56991,2.74662 -9.12454,3.03808 -12.991285,1.06523 -5.197673,-2.65191 -5.684834,-7.99324 -0.95038,-10.42032 3.855175,-1.97632 11.367725,-0.42834 16.046935,3.30652 0.70005,0.55876 1.51038,1.01511 1.80075,1.01411 0.67508,-0.002 5.07575,-3.49151 5.22221,-4.14057 0.0607,-0.26936 -0.75191,-1.39969 -1.806,-2.51185 -1.05409,-1.11217 -2.52208,-2.72197 -3.2622,-3.577323 -0.7401,-0.855357 -1.51419,-1.555206 -1.72018,-1.555206 -0.206,0 -1.73048,0.681004 -3.38775,1.51333 -7.00345,3.517339 -12.873283,2.825189 -16.313286,-1.923596 -1.918904,-2.648966 -1.00998,-5.87867 2.123998,-7.547304 1.137663,-0.60573 1.846982,-0.708212 4.773998,-0.689779 2.91846,0.01832 3.7792,0.154472 5.69761,0.900773 2.46973,0.960762 3.86066,1.739201 6.04677,3.384132 0.85563,0.643805 1.60113,0.980325 1.8542,0.836966 1.17106,-0.663331 5.04938,-3.888365 5.05609,-4.204417 0.004,-0.199736 -0.56099,-1.010082 -1.25608,-1.800749 -1.59326,-1.812369 -2.89041,-4.358897 -3.42956,-6.732818 l -0.41847,-1.842574 -1.7002,-0.435113 c -2.55387,-0.653586 -3.98361,-1.503107 -5.84884,-3.475319 -1.31778,-1.393364 -1.83805,-2.270332 -2.37148,-3.99737 -0.816,-2.641914 -0.88962,-4.83876 -0.18184,-5.426173 0.68515,-0.568625 2.41815,-0.02346 4.68378,1.473387 0.96111,0.634987 1.86216,1.154525 2.00232,1.154525 0.14016,0 0.32699,-1.008379 0.41517,-2.240835 0.25907,-3.620799 2.37477,-7.58147 4.04984,-7.58147 1.54176,0 4.39048,5.081733 4.39048,7.832015 0,0.713251 0.11632,1.368712 0.25849,1.456569 0.14215,0.08786 0.89896,-0.270412 1.6818,-0.79617 2.36528,-1.588545 5.12108,-2.085676 5.95933,-1.075023 0.73221,0.88281 0.55152,4.906938 -0.29347,6.53568 -1.09524,2.111088 -2.35576,3.447988 -3.14438,3.334893 -1.06619,-0.152901 -0.9922,-0.982989 0.25248,-2.832579 1.19425,-1.774648 1.85494,-4.415657 1.25478,-5.015812 -0.63685,-0.636848 -3.31151,0.927357 -5.47922,3.204392 -1.51389,1.590226 -2.22594,2.121529 -2.63362,1.965088 -0.48784,-0.187203 -0.52296,-0.473413 -0.27673,-2.255026 0.47794,-3.458145 0.25637,-5.717378 -0.75991,-7.748226 -0.50169,-1.002552 -1.0587,-1.822816 -1.23779,-1.822816 -0.17909,0 -0.66906,0.865557 -1.08882,1.923466 -0.92744,2.337402 -1.0159,5.218502 -0.24195,7.880775 0.42126,1.44914 0.45758,1.979133 0.16012,2.337554 -0.64402,0.775992 -1.18781,0.534583 -2.61892,-1.162648 -1.75727,-2.084005 -4.76087,-4.19851 -5.2579,-3.701495 -0.43467,0.434679 0.0819,2.244622 1.19351,4.181706 0.97483,1.698737 3.64645,3.311334 6.46186,3.900405 1.1895,0.248873 2.32045,0.549968 2.5132,0.669094 0.19275,0.119126 0.35045,0.844663 0.35045,1.612293 0,2.523078 1.17487,5.134933 3.67946,8.179866 l 0.77142,0.937834 3.24949,-1.559608 c 1.78724,-0.857781 3.99032,-1.756903 4.89574,-1.998037 2.46827,-0.657336 7.2424,-0.567575 8.84927,0.166396 1.75285,0.800658 3.9958,3.285784 4.26613,4.726773 0.45003,2.398811 -1.79246,5.433732 -4.88865,6.616181 -2.48451,0.948839 -6.5452,0.551916 -9.84195,-0.962029 -1.43365,-0.658357 -3.37951,-1.780549 -4.32414,-2.493749 -0.94464,-0.713214 -1.92885,-1.29674 -2.18714,-1.29674 -0.25829,0 -1.31648,0.699843 -2.35151,1.555199 -1.03502,0.855356 -2.25476,1.863823 -2.7105,2.241017 l -0.82864,0.685825 3.3534,3.65237 c 1.84437,2.00879 3.57248,3.65236 3.84024,3.65236 0.26776,0 1.69365,-0.57723 3.16864,-1.28273 4.17,-1.99454 5.44089,-2.31878 9.08863,-2.31878 2.80873,0 3.49282,0.11162 4.81786,0.78611 1.85198,0.94273 2.81308,1.91838 3.49315,3.54603 0.66362,1.58824 0.63926,2.30981 -0.12879,3.8153 -1.52687,2.99292 -4.47989,4.46122 -8.50383,4.22828 -2.24941,-0.13021 -3.01572,-0.35121 -5.65331,-1.63028 -1.67815,-0.81381 -3.7523,-2.01744 -4.60922,-2.67474 -0.85692,-0.6573 -1.64569,-1.19509 -1.75282,-1.19509 -0.10713,0 -1.04183,0.69984 -2.07709,1.5552 -1.03527,0.85536 -2.29975,1.85872 -2.80994,2.22968 l -0.92764,0.67449 3.19824,3.5 c 1.75903,1.925 3.34187,3.49999 3.51741,3.49999 0.17555,0 1.68176,-0.64961 3.34714,-1.44357 4.08266,-1.94641 5.37898,-2.26903 9.21246,-2.29288 3.53822,-0.022 4.63062,0.32359 6.49557,2.05492 1.32502,1.23007 1.85339,2.4095 1.85339,4.13711 0,2.57822 -1.1762,4.109445 -4.25634,5.541105 -3.86268,1.79538 -9.23593,0.52738 -14.62007,-3.450115 -0.94736,-0.69985 -1.88774,-1.27247 -2.08972,-1.27247 -0.40787,0 -4.24447,3.245315 -4.24447,3.590325 0,0.11991 0.62617,0.56646 1.39149,0.99234 6.67205,3.71275 11.6225,8.10681 13.34598,11.84597 0.90218,1.95728 1.06763,2.69814 1.08144,4.84228 0.0144,2.24141 -0.11637,2.80908 -1.14162,4.95446 -1.85441,3.88047 -5.73944,7.44111 -11.61149,10.64196 -1.50124,0.81832 -2.81962,1.63365 -2.92974,1.81182 -0.11012,0.17817 0.66984,1.2355 1.73325,2.34961 2.45605,2.57321 3.78084,4.52058 5.21249,7.66212 1.6025,3.51644 2.1749,6.2366 2.01763,9.58814 -0.23034,4.90877 -2.62536,8.4711 -7.13497,10.6125 -1.89484,0.89977 -2.50507,1.02034 -5.56597,1.09967 -2.96239,0.0768 -3.74616,-0.0216 -5.66753,-0.71192 z m 8.3973,-1.66894 c 5.78387,-1.50651 8.79478,-6.49916 7.61902,-12.63381 -0.93486,-4.87773 -3.22077,-9.22272 -6.75289,-12.83577 -2.58073,-2.63984 -2.2608,-2.66861 -7.30517,0.65708 -3.77885,2.49135 -5.64248,4.10992 -7.23239,6.28132 -3.45788,4.72257 -2.61038,12.17219 1.80769,15.88975 3.16904,2.66656 7.80468,3.69868 11.86374,2.64143 z m -11.62496,-60.25088 c 2.14112,-0.50476 6.27067,-2.29832 7.42185,-3.22349 0.6495,-0.522 0.64818,-0.53164 -0.16371,-1.18943 -0.45018,-0.36473 -2.09695,-1.311365 -3.65948,-2.103635 -3.32917,-1.68803 -6.11985,-2.15875 -8.99007,-1.51642 -2.01405,0.45072 -4.048367,2.09993 -4.048367,3.281985 0,2.05196 1.783937,3.86945 4.689887,4.77809 1.78598,0.55844 2.27805,0.55563 4.74989,-0.0271 z m 33.22993,-4.88676 c 3.44521,-1.667475 3.11179,-5.432875 -0.60567,-6.840065 -2.02005,-0.76466 -4.26382,-0.78691 -7.03114,-0.0698 -2.37677,0.61598 -6.54821,2.42383 -6.54821,2.83791 0,0.30368 3.01081,2.60546 4.25634,3.25398 3.18229,1.656965 7.46599,2.009855 9.92868,0.817905 z M 109.56534,89.915915 c 1.4406,-0.56237 3.05008,-1.3692 3.57662,-1.79294 l 0.95733,-0.77043 -1.99263,-1.35318 c -4.02871,-2.73585 -9.79201,-3.89144 -12.623613,-2.53114 -2.444307,1.17423 -2.748226,3.53551 -0.716545,5.56719 2.385168,2.38516 6.156708,2.69268 10.798838,0.8805 z m 30.21389,-4.02686 c 1.80992,-0.89793 2.91853,-2.59761 2.57836,-3.95305 -0.80922,-3.22413 -6.08744,-4.41868 -11.39349,-2.57853 -2.38578,0.82738 -4.95571,2.09047 -5.0891,2.50121 -0.12455,0.38348 3.52428,2.87074 5.29953,3.61248 3.77911,1.57902 6.04267,1.68896 8.6047,0.41789 z M 106.99265,75.026152 c 2.99787,-0.871573 5.46918,-2.124446 5.60314,-2.840629 0.11852,-0.633669 -2.52161,-2.416846 -5.19314,-3.507522 -2.74234,-1.119578 -6.86232,-1.402776 -8.928453,-0.613716 -3.667692,1.400705 -2.518546,5.569995 1.991413,7.225199 1.8193,0.667711 3.56712,0.597201 6.52704,-0.263332 z m 30.5607,-4.010858 c 4.38739,-1.302915 5.15779,-5.229732 1.38439,-7.056399 -2.16542,-1.048265 -4.37167,-1.138018 -7.57343,-0.308081 -2.9374,0.76141 -6.5744,2.434084 -6.5744,3.023582 0,0.89443 4.487,3.468101 7.36036,4.221801 2.86689,0.751985 3.24391,0.760296 5.40308,0.119097 z"
       id="path51"
       inkscape:connector-curvature="0"
       sodipodi:nodetypes="sssssscsssssssssssssssssscsssssssssscsssssssssssssssscsscssssssssssssssssssssssssssssssscsssssssssscssssssssssssscsssssssssssssssssssssssssssssssssssssssssssssssssssssssssssssssssssssss" />
    <path
       d="m 62.418699,190.25905 h -1.027131 l -0.710724,-2.0202 h -3.134935 l -0.71072,2.0202 h -0.978451 l 2.638415,-7.24836 h 1.285131 z m -2.034794,-2.84774 -1.270528,-3.55847 -1.275394,3.55847 z m 11.093654,2.31226 c -0.395916,0.18173 -0.829162,0.34074 -1.29973,0.47705 -0.467324,0.13307 -0.920038,0.1996 -1.358149,0.1996 -0.564679,0 -1.082306,-0.0779 -1.552867,-0.23366 -0.470567,-0.15579 -0.871363,-0.38945 -1.202381,-0.70099 -0.334268,-0.31479 -0.592257,-0.70749 -0.774001,-1.17805 -0.181737,-0.47381 -0.272598,-1.02713 -0.272598,-1.65996 0,-1.15855 0.337504,-2.07211 1.012528,-2.74063 0.67826,-0.67177 1.608035,-1.00766 2.789319,-1.00766 0.412149,0 0.832413,0.0503 1.260787,0.1509 0.431623,0.0974 0.895697,0.26449 1.392227,0.50141 v 1.14396 h -0.08762 c -0.100606,-0.0779 -0.246643,-0.18011 -0.438118,-0.3067 -0.191468,-0.12656 -0.379699,-0.23203 -0.56468,-0.3164 -0.223924,-0.10061 -0.478676,-0.18338 -0.764256,-0.24828 -0.282343,-0.0681 -0.60363,-0.10221 -0.963854,-0.10221 -0.811323,0 -1.45389,0.26123 -1.927701,0.78372 -0.470567,0.51926 -0.705844,1.22349 -0.705844,2.11269 0,0.93788 0.246636,1.66809 0.739915,2.19057 0.493287,0.51924 1.165067,0.77887 2.015319,0.77887 0.311549,0 0.621477,-0.0308 0.929783,-0.0925 0.311549,-0.0616 0.584148,-0.14116 0.81781,-0.23851 V 187.46 h -1.942304 v -0.84704 h 2.896413 z m 8.720269,0.53548 h -4.775439 v -7.24836 h 4.775439 v 0.85677 h -3.811585 v 1.98611 h 3.811585 v 0.85676 h -3.811585 v 2.69196 h 3.811585 z m 8.971243,0 h -1.192637 l -3.436759,-6.48409 v 6.48409 h -0.900562 v -7.24836 h 1.494448 l 3.13494,5.91941 v -5.91941 h 0.90057 z m 8.962865,0 h -5.656527 v -0.89572 l 4.444415,-5.49587 h -4.278909 v -0.85677 h 5.383928 v 0.87138 l -4.488224,5.52022 h 4.595317 z m 5.480144,0 h -2.86234 v -0.73994 h 0.94925 v -5.76849 h -0.94925 v -0.73993 h 2.86234 v 0.73993 h -0.94924 v 5.76849 h 0.94924 z m 8.92041,0 h -1.02712 l -0.71073,-2.0202 h -3.13494 l -0.71072,2.0202 h -0.97844 l 2.63841,-7.24836 h 1.28513 z m -2.03479,-2.84774 -1.27052,-3.55847 -1.2754,3.55847 z m 14.4985,2.32199 c -0.1785,0.0779 -0.34076,0.15091 -0.4868,0.21907 -0.14279,0.0682 -0.33101,0.13954 -0.56468,0.21419 -0.19796,0.0616 -0.41377,0.11357 -0.64744,0.15575 -0.23041,0.0455 -0.48517,0.0682 -0.76426,0.0682 -0.52574,0 -1.00441,-0.073 -1.43604,-0.21905 -0.42837,-0.14929 -0.80158,-0.38132 -1.11962,-0.69612 -0.31155,-0.3083 -0.55494,-0.69935 -0.73019,-1.17316 -0.17524,-0.47707 -0.26286,-1.03039 -0.26286,-1.65996 0,-0.59713 0.0844,-1.131 0.25313,-1.60156 0.16875,-0.47055 0.41215,-0.86811 0.73019,-1.19264 0.3083,-0.31479 0.67988,-0.55495 1.11475,-0.72046 0.43811,-0.1655 0.92328,-0.24824 1.45551,-0.24824 0.38943,0 0.77725,0.0471 1.16343,0.14116 0.38944,0.0941 0.82106,0.25963 1.29488,0.49653 v 1.14396 h -0.073 c -0.39917,-0.33427 -0.79509,-0.57766 -1.18778,-0.73018 -0.39267,-0.15252 -0.81294,-0.2288 -1.26079,-0.2288 -0.36671,0 -0.69773,0.06 -0.99304,0.18012 -0.29209,0.11684 -0.55333,0.30019 -0.78374,0.55007 -0.22393,0.24341 -0.39918,0.55171 -0.52574,0.92491 -0.12332,0.36995 -0.18498,0.79833 -0.18498,1.28513 0,0.50951 0.0681,0.9476 0.20446,1.31434 0.13954,0.36673 0.31803,0.66528 0.53546,0.89569 0.22717,0.24014 0.49166,0.41864 0.79347,0.53547 0.30506,0.11359 0.62634,0.1704 0.96385,0.1704 0.46408,0 0.89895,-0.0795 1.30461,-0.23856 0.40566,-0.15902 0.78536,-0.39754 1.13909,-0.71557 h 0.0682 z m 9.62083,0.52575 h -1.25106 l -2.42422,-2.88183 h -1.35816 v 2.88183 h -0.96385 v -7.24836 h 2.02993 c 0.43811,0 0.80321,0.0292 1.09528,0.0876 0.29207,0.0552 0.55494,0.15579 0.78861,0.30182 0.26286,0.1655 0.46732,0.37482 0.61335,0.62796 0.14928,0.24988 0.22393,0.56794 0.22393,0.95412 0,0.52249 -0.13144,0.96058 -0.39431,1.31432 -0.26286,0.3505 -0.62471,0.61499 -1.08555,0.79348 z m -2.25386,-5.20868 c 0,-0.20772 -0.0374,-0.39107 -0.11195,-0.55009 -0.0714,-0.16225 -0.19148,-0.29855 -0.36024,-0.40891 -0.13954,-0.0941 -0.30505,-0.15902 -0.49652,-0.19472 -0.19147,-0.0389 -0.41702,-0.0584 -0.67664,-0.0584 h -1.13423 v 2.73577 h 0.97359 c 0.30505,0 0.57117,-0.0259 0.79834,-0.0779 0.22717,-0.0552 0.42026,-0.15575 0.57928,-0.30179 0.14604,-0.1363 0.25313,-0.29208 0.32128,-0.46731 0.0715,-0.17849 0.10709,-0.40406 0.10709,-0.67665 z m 9.52891,5.20868 h -4.77543 v -7.24836 h 4.77543 v 0.85677 h -3.81159 v 1.98611 h 3.81159 v 0.85676 h -3.81159 v 2.69196 h 3.81159 z m 9.6779,0 h -1.02714 l -0.71072,-2.0202 h -3.13494 l -0.71072,2.0202 h -0.97845 l 2.63842,-7.24836 h 1.28512 z m -2.0348,-2.84774 -1.27054,-3.55847 -1.27539,3.55847 z m 9.98104,-3.54385 h -2.58973 v 6.39159 h -0.96385 v -6.39159 h -2.58973 v -0.85677 h 6.14331 z m 5.26812,6.39159 H 161.922 v -0.73994 h 0.94924 v -5.76849 H 161.922 v -0.73993 h 2.86234 v 0.73993 h -0.94924 v 5.76849 h 0.94924 z m 9.26818,-7.24836 -2.63841,7.24836 h -1.28514 l -2.63841,-7.24836 h 1.032 l 2.27333,6.37699 2.27332,-6.37699 z m 9.4791,7.24836 h -1.02713 l -0.71071,-2.0202 h -3.13495 l -0.71072,2.0202 h -0.97845 l 2.63841,-7.24836 h 1.28513 z m -2.03479,-2.84774 -1.27052,-3.55847 -1.2754,3.55847 z"
       id="text3"
       style="font-size:39.7739px;line-height:1.25;-inkscape-font-specification:'sans-serif, ';white-space:pre;fill:#ffffff;stroke-width:0.250655"
       aria-label="AGENZIA CREATIVA"
       sodipodi:nodetypes="cccccccccccccccssccsssccccsccscscsccccccccccccccccccccccccccccccccccccccccccccccccccccccccccccccccccccccccscccssccsccccsscccscccssccccccccccscccscccscccsccscccsccccccccccccccccccccccccccccccccccccccccccccccccccccccccccccccccccccc"
       inkscape:connector-curvature="0" />
    <path
       sodipodi:nodetypes="sssssscsssssssssssssssssssssssssssssssssssssssssssssssssssssssssssssssssscssssssssscssssscssssssssssssscssssssssssssscsssscsssssssssscssc"
       inkscape:connector-curvature="0"
       id="path4879"
       d="m 56.081867,269.69177 c -1.392222,-0.94708 -1.877948,-1.90721 -1.877948,-3.71194 0,-4.0673 2.750135,-8.68229 8.37322,-14.05096 3.839395,-3.66569 10.428462,-8.40142 16.167075,-11.6197 0.843498,-0.47304 1.678491,-1.14827 1.930218,-1.56091 1.400763,-2.29612 4.967502,-11.97947 6.192485,-16.812 2.339116,-9.22775 1.899809,-15.41533 -1.240617,-17.47393 -1.976463,-1.2956 -3.92668,-1.50545 -6.530134,-0.70267 -2.159633,0.66594 -3.385532,1.31326 -5.594583,2.95413 -5.064752,3.76208 -9.142148,10.35948 -9.982251,16.15174 -0.445094,3.06865 0.450683,5.91889 2.650844,8.43478 0.849028,0.97087 0.884399,1.966 0.09784,2.75256 -0.745233,0.74524 -1.548011,0.7277 -2.477142,-0.0542 -1.383198,-1.16387 -2.331473,-4.51322 -2.331473,-8.23475 0,-6.229 2.683802,-11.89692 8.537415,-18.03016 2.611724,-2.73647 4.949285,-4.5375 7.458955,-5.74689 6.041961,-2.9116 10.673734,-1.55628 12.26696,3.58945 0.621819,2.00834 0.542857,9.23377 -0.142005,12.99314 -0.961732,5.27923 -2.911112,12.13746 -4.844608,17.04416 -0.239131,0.60684 -0.369889,1.16825 -0.29057,1.24757 0.07932,0.0793 1.706801,-0.7421 3.616614,-1.82537 1.909823,-1.08328 4.246332,-2.37409 5.192243,-2.86848 1.438112,-0.75163 1.799933,-1.06372 2.208721,-1.90512 0.807205,-1.66146 2.797434,-2.22606 3.463017,-0.98241 0.210595,0.3935 0.15589,0.95793 -0.260284,2.68567 -0.513911,2.13351 -0.516711,2.21416 -0.113507,3.26994 0.341481,0.89414 0.588945,1.16013 1.422332,1.52878 1.160266,0.51324 2.137316,0.38286 4.585376,-0.61187 2.15431,-0.87538 6.71492,-4.08179 6.76333,-4.75507 0.17689,-2.46045 0.48462,-3.12116 1.73035,-3.71521 0.98786,-0.47107 1.93011,-0.25744 2.28329,0.51769 0.22561,0.49516 0.18624,0.66449 -0.26653,1.14646 -0.29219,0.31101 -0.45987,0.68095 -0.37264,0.82209 0.0872,0.14113 0.80918,0.58165 1.60434,0.97893 2.13427,1.06631 2.49897,1.47463 2.49897,2.79786 0,0.83929 -0.26255,1.65163 -1.0808,3.34412 -1.18697,2.45516 -1.22562,3.15044 -0.20107,3.61726 1.24989,0.56949 2.76708,0.15773 5.08005,-1.37869 2.07265,-1.37679 7.90261,-7.36771 8.75132,-8.99295 0.739,-1.41513 1.80925,-2.14048 2.79371,-1.89339 1.03698,0.26026 1.14697,0.90752 0.56488,3.32405 -0.51392,2.13351 -0.51671,2.21416 -0.1135,3.26994 0.34148,0.89414 0.58894,1.16013 1.42233,1.52878 0.84927,0.37567 1.18046,0.40785 2.0929,0.20337 1.80496,-0.40449 3.79913,-1.31942 5.81184,-2.66646 2.7345,-1.8301 3.5671,-2.72176 4.02555,-4.31099 1.76796,-6.12893 3.94903,-11.74037 6.57279,-16.91046 2.89846,-5.7114 4.7101,-7.69538 7.03529,-7.70452 0.79029,-0.003 1.07481,0.11952 1.48424,0.63977 0.77573,0.98568 0.58252,3.75487 -0.43681,6.26079 -1.3722,3.37341 -5.00976,9.46961 -8.27357,13.86571 -0.84363,1.1363 -0.75204,1.49571 0.2082,0.81699 1.21693,-0.86015 4.50876,-2.39795 5.66294,-2.64547 1.48765,-0.31904 2.73925,0.13926 2.97798,1.09045 0.21738,0.86607 -0.33571,1.23258 -1.86192,1.23382 -2.64429,0.002 -6.44712,1.70752 -9.4836,4.25294 -1.31649,1.10359 -1.65527,1.5531 -2.29311,3.04263 -0.41164,0.96125 -0.75586,1.9847 -0.76496,2.27433 -0.0145,0.462 0.0996,0.52661 0.92952,0.52661 2.43847,0 6.77278,-1.3214 13.043,-3.97642 3.81633,-1.61596 3.99892,-1.72361 4.38832,-2.58714 0.7041,-1.56142 2.76139,-2.09885 3.40816,-0.89034 0.21059,0.3935 0.15589,0.95793 -0.26028,2.68567 -0.51391,2.13351 -0.51671,2.21416 -0.11351,3.26994 0.34147,0.89414 0.58894,1.16013 1.42234,1.52878 0.84927,0.37567 1.18045,0.40785 2.09289,0.20337 2.82176,-0.63236 6.53761,-2.79047 9.06979,-5.26759 0.97008,-0.94897 1.4941,-1.29689 1.8724,-1.24315 2.00797,0.28523 -1.75121,4.30976 -6.02981,6.45542 -2.59351,1.30062 -4.07217,1.69385 -6.36932,1.69385 -2.04645,0 -3.25879,-0.39294 -4.0753,-1.32087 -0.51971,-0.59065 -1.37304,-2.31902 -1.37304,-2.78103 0,-0.20668 -0.10638,-0.57457 -0.23641,-0.81753 -0.22616,-0.42258 -0.33536,-0.40563 -2.51602,0.39043 -5.31293,1.93948 -10.61059,3.41253 -14.06777,3.91162 l -1.97368,0.28492 -0.55584,1.86308 c -1.53842,5.15652 -2.07674,10.26083 -1.36102,12.90492 0.36082,1.33299 0.62821,1.77743 1.79625,2.98572 0.75477,0.78078 1.34267,1.57397 1.30643,1.76263 -0.0362,0.18867 -0.35502,0.50463 -0.7084,0.70215 -0.59161,0.33064 -0.71149,0.32201 -1.51241,-0.10898 -0.47845,-0.25745 -1.11034,-0.8263 -1.40424,-1.2641 -0.96478,-1.4372 -1.11896,-2.44814 -1.11012,-7.27865 0.007,-4.00512 0.0892,-4.99021 0.66833,-8.04528 l 0.65998,-3.48134 -0.60983,-0.56546 c -0.3354,-0.31101 -0.60981,-0.71919 -0.60981,-0.90706 0,-0.50959 -0.56464,-0.41774 -2.0546,0.33423 -2.0457,1.03244 -3.67046,1.4306 -5.83782,1.4306 -2.91875,0 -4.14402,-0.75486 -5.1344,-3.16318 -0.23703,-0.57636 -0.5177,-1.04832 -0.62372,-1.04881 -0.10603,-5.1e-4 -0.73796,0.59709 -1.40429,1.32792 -2.08492,2.28677 -5.3248,4.9468 -7.28689,5.98274 -1.79408,0.94725 -1.97734,0.99389 -3.91221,0.99549 -2.25714,0.002 -2.87699,-0.27792 -3.87976,-1.7513 -0.76897,-1.12985 -0.73216,-3.58931 0.0824,-5.50251 0.9175,-2.15509 0.92711,-2.22346 0.31262,-2.22346 -0.2955,0 -0.88722,-0.12653 -1.31491,-0.28118 -0.73682,-0.26645 -0.82369,-0.23777 -1.65496,0.54638 -2.29247,2.16254 -5.28023,3.93278 -8.00152,4.74091 -1.84166,0.54692 -4.933088,0.50397 -6.086716,-0.0846 -1.320785,-0.67381 -2.27537,-2.10786 -2.691839,-4.04385 -0.07615,-0.354 -0.251309,-0.64363 -0.389245,-0.64363 -0.22361,0 -6.867593,3.6241 -10.29757,5.61703 l -1.312385,0.76254 -1.490195,3.39526 c -1.980907,4.51329 -7.03793,14.21518 -8.764936,16.81552 -0.862139,1.29812 -2.484861,3.18307 -4.315003,5.01234 -2.586006,2.58477 -3.182141,3.05503 -5.036104,3.97275 -1.966224,0.9733 -2.247543,1.04651 -4.329877,1.12682 -2.033408,0.0784 -2.297765,0.0377 -3.040617,-0.46761 z m 3.78892,-3.69902 c 0.680651,-0.25583 2.144373,-1.14704 3.252735,-1.98047 3.916032,-2.94467 6.917551,-6.7066 11.653085,-14.60534 3.002242,-5.00765 3.685535,-6.28058 3.481079,-6.48504 -0.353676,-0.35367 -7.731691,5.13917 -11.612152,8.64512 -6.077793,5.49121 -10.410469,11.79289 -9.590657,13.94916 0.409574,1.07728 0.966784,1.17158 2.81591,0.47657 z M 154.36712,222.6324 c 3.1891,-4.97895 6.32864,-10.77404 6.32864,-11.68166 0,-0.76507 -0.42155,-0.46241 -1.54106,1.10644 -1.60583,2.25036 -2.99145,4.77406 -4.15882,7.57463 -1.22251,2.93288 -1.4179,3.52719 -1.15958,3.52719 0.10643,0 0.3453,-0.23698 0.53082,-0.5266 z m -57.001759,3.92201 c -0.508027,-0.77536 -0.276524,-1.62398 0.712939,-2.61344 1.011914,-1.01191 2.1454,-1.09569 2.37633,-0.17565 0.53035,2.11311 -2.022205,4.41762 -3.089269,2.78909 z m 36.043399,0 c -0.50803,-0.77536 -0.27653,-1.62398 0.71294,-2.61344 1.01191,-1.01191 2.14541,-1.09569 2.37632,-0.17565 0.53035,2.11311 -2.02219,4.41762 -3.08926,2.78909 z m 35.57531,0 c -0.50803,-0.77536 -0.27654,-1.62398 0.71294,-2.61344 1.0119,-1.01191 2.1454,-1.09569 2.37632,-0.17565 0.53036,2.11311 -2.0222,4.41762 -3.08926,2.78909 z"
       style="display:inline;fill:#ffffff;fill-opacity:1;stroke-width:0.234048" />
  </g>
</svg>
