<?xml version="1.0" encoding="UTF-8" standalone="no"?>
<!-- Created with Inkscape (http://www.inkscape.org/) -->

<svg
   xmlns:dc="http://purl.org/dc/elements/1.1/"
   xmlns:cc="http://creativecommons.org/ns#"
   xmlns:rdf="http://www.w3.org/1999/02/22-rdf-syntax-ns#"
   xmlns:svg="http://www.w3.org/2000/svg"
   xmlns="http://www.w3.org/2000/svg"
   xmlns:xlink="http://www.w3.org/1999/xlink"
   xmlns:sodipodi="http://sodipodi.sourceforge.net/DTD/sodipodi-0.dtd"
   xmlns:inkscape="http://www.inkscape.org/namespaces/inkscape"
   width="240mm"
   height="420mm"
   viewBox="0 0 240 420"
   version="1.1"
   id="svg27"
   inkscape:version="0.92.3 (2405546, 2018-03-11)"
   sodipodi:docname="Jiriki_ver_21.svg"
   style="shape-rendering:crispEdges">
  <defs
     id="defs21">
    <linearGradient
       id="linearGradient29"
       inkscape:collect="always">
      <stop
         style="stop-color:#003145;stop-opacity:1;"
         offset="0"
         id="stop29" />
      <stop
         style="stop-color:#246994;stop-opacity:0;"
         offset="1"
         id="stop30" />
    </linearGradient>
    <inkscape:perspective
       sodipodi:type="inkscape:persp3d"
       inkscape:vp_x="0 : 202.49997 : 1"
       inkscape:vp_y="0 : 999.99992 : 0"
       inkscape:vp_z="734.00003 : 202.49997 : 1"
       inkscape:persp3d-origin="367.00002 : 135 : 1"
       id="perspective22" />
    <rect
       x="408.78616"
       y="1489.6445"
       width="1517.3588"
       height="138.57158"
       id="rect3" />
    <rect
       x="408.78616"
       y="1489.6445"
       width="1517.3588"
       height="138.57158"
       id="rect3-3" />
    <rect
       x="408.78616"
       y="1489.6445"
       width="1517.3588"
       height="138.57158"
       id="rect4" />
    <linearGradient
       inkscape:collect="always"
       xlink:href="#linearGradient29"
       id="linearGradient30"
       x1="-100"
       y1="236.50002"
       x2="828"
       y2="236.50002"
       gradientUnits="userSpaceOnUse"
       gradientTransform="matrix(0.2601165,0,0,0.62281012,25.011784,47.718827)" />
  </defs>
  <sodipodi:namedview
     id="base"
     pagecolor="#ffffff"
     bordercolor="#666666"
     borderopacity="1.0"
     inkscape:pageopacity="0.0"
     inkscape:pageshadow="2"
     inkscape:zoom="0.55107027"
     inkscape:cx="446.69997"
     inkscape:cy="1259.8298"
     inkscape:document-units="mm"
     inkscape:current-layer="g27"
     showgrid="false"
     inkscape:window-width="1366"
     inkscape:window-height="705"
     inkscape:window-x="-8"
     inkscape:window-y="-8"
     inkscape:window-maximized="1"
     inkscape:showpageshadow="false"
     inkscape:pagecheckerboard="0"
     inkscape:deskcolor="#d1d1d1"
     showguides="true"
     showborder="true"
     borderlayer="false"
     shape-rendering="crispEdges"
     fit-margin-left="9.8"
     fit-margin-top="10"
     fit-margin-right="10"
     fit-margin-bottom="10"
     inkscape:guide-bbox="true">
    <sodipodi:guide
       position="-0.91659322,442.58034"
       orientation="1,0"
       id="guide1"
       inkscape:locked="false" />
    <sodipodi:guide
       position="151.97982,350.48407"
       orientation="0,-1"
       id="guide2"
       inkscape:locked="false" />
    <sodipodi:guide
       position="-100.88641,430.22162"
       orientation="1,0"
       id="guide27"
       inkscape:locked="false" />
    <sodipodi:guide
       position="81.147763,505.88643"
       orientation="0,-1"
       id="guide28"
       inkscape:locked="false" />
    <sodipodi:guide
       position="827.9265,213.0965"
       orientation="1,0"
       id="guide29"
       inkscape:locked="false" />
    <sodipodi:guide
       position="144.36173,341.17788"
       orientation="0,1"
       id="guide4042"
       inkscape:locked="false" />
  </sodipodi:namedview>
  <metadata
     id="metadata24">
    <rdf:RDF>
      <cc:Work
         rdf:about="">
        <dc:format>image/svg+xml</dc:format>
        <dc:type
           rdf:resource="http://purl.org/dc/dcmitype/StillImage" />
        <dc:title></dc:title>
      </cc:Work>
    </rdf:RDF>
  </metadata>
  <g
     inkscape:groupmode="layer"
     id="layer2"
     inkscape:label="Sfondo da non esportare x web"
     style="display:none"
     transform="translate(0,15)" />
  <g
     id="g27"
     inkscape:label="Sfondo da esportare x web"
     style="display:inline"
     inkscape:groupmode="layer"
     transform="translate(0,15)">
    <rect
       style="opacity:1;fill:url(#linearGradient30);fill-opacity:1;stroke:#000000;stroke-width:0;stroke-linejoin:round;stroke-miterlimit:4;stroke-dasharray:none;paint-order:markers stroke fill"
       id="rect27"
       width="241.10362"
       height="419.71564"
       x="-0.85763329"
       y="-14.844412"
       inkscape:label="rettangolo_desktop" />
  </g>
  <g
     inkscape:label="Livello 1"
     inkscape:groupmode="layer"
     id="layer1"
     style="display:inline"
     transform="translate(0,15)" />
  <g
     inkscape:groupmode="layer"
     id="g3"
     inkscape:label="Agenzia creativa copia"
     style="display:inline"
     transform="translate(0,15)">
    <path
       style="display:inline;fill:#ffffff;fill-opacity:1;stroke-width:0.45222723"
       d="m 107.59871,196.86081 c -3.68116,-1.32247 -4.78795,-2.01297 -7.821685,-4.87977 -1.55038,-1.46507 -2.81046,-3.25802 -3.8349,-5.45665 -1.42658,-3.06168 -1.52639,-3.58489 -1.53482,-8.04644 -0.009,-4.61232 0.0478,-4.88675 1.68959,-8.20879 2.12791,-4.30551 6.891255,-8.94619 13.444295,-13.09806 2.48606,-1.57515 4.52211,-3.03547 4.52454,-3.24522 0.002,-0.20974 -1.53116,-2.03426 -3.40801,-4.0545 -2.27278,-2.44643 -4.00963,-4.86633 -5.20062,-7.24583 -1.60135,-3.19943 -1.78817,-3.92344 -1.78817,-6.93003 0,-3.95999 0.84064,-5.95912 3.52596,-8.38515 2.26243,-2.04397 4.52476,-2.81858 8.23196,-2.81858 5.19945,0 8.51679,1.90854 10.65638,6.13081 1.52714,3.01366 1.56186,7.71817 0.0732,9.92711 -3.26087,4.83879 -9.31769,4.79399 -12.06222,-0.0892 -1.07993,-1.92146 -1.1823,-3.24268 -0.30754,-3.96868 0.9447,-0.78403 1.99182,-0.13962 2.55731,1.57382 0.61693,1.86932 1.97931,2.90089 3.8312,2.90089 3.1879,0 4.7924,-2.94796 3.86355,-7.09851 -1.89928,-8.48687 -15.1663,-8.71082 -17.16106,-0.2897 -0.66674,2.81476 0.21558,6.42231 2.4096,9.85211 1.96447,3.07095 7.38417,8.84178 8.3038,8.84178 1.42448,0 10.44391,-5.3769 14.69013,-8.75748 3.90991,-3.11284 7.11364,-8.94482 7.11364,-12.94943 0,-3.93179 -2.86546,-9.3614 -6.48597,-12.2899 -4.09476,-3.31211 -14.4159,-9.99337 -15.44706,-9.99945 -0.24872,-0.001 -2.48725,1.13941 -4.9745,2.53527 -5.07164,2.84625 -8.57585,3.92612 -12.740415,3.92612 -4.89634,0 -9.75915,-2.61695 -11.64717,-6.26798 -2.10838,-4.07712 -0.78612,-7.54538 3.81123,-9.996839 2.76602,-1.47493 3.19302,-1.56695 7.23565,-1.55922 3.981015,0.008 4.578125,0.13351 8.140095,1.71631 2.11416,0.93947 5.11082,2.506009 6.65926,3.481189 1.54844,0.97519 3.07766,1.77307 3.39825,1.77307 0.8217,0 6.22614,-4.448159 6.20623,-5.108089 -0.009,-0.29961 -2.00185,-2.65901 -4.42846,-5.24313 l -4.41203,-4.69837 -5.18137,2.55502 c -7.6933,3.7937 -12.603045,4.19628 -17.943895,1.47132 -7.17916,-3.66288 -7.85204,-11.04047 -1.31269,-14.39281 5.32486,-2.729739 15.701395,-0.59163 22.164435,4.56705 0.96693,0.77178 2.08618,1.4021 2.48725,1.40072 0.93244,-0.003 7.01075,-4.82257 7.21305,-5.71906 0.0839,-0.37205 -1.03856,-1.93329 -2.4945,-3.469439 -1.45594,-1.53616 -3.48356,-3.75965 -4.50583,-4.94109 -1.02225,-1.18144 -2.09144,-2.14809 -2.37596,-2.14809 -0.28453,0 -2.39018,0.94062 -4.67924,2.09025 -9.673345,4.85824 -17.780915,3.90223 -22.532335,-2.65692 -2.65044,-3.65882 -1.39501,-8.11977 2.93372,-10.42453 1.57137,-0.83665 2.5511,-0.9782 6.59397,-0.95274 4.03105,0.0253 5.219925,0.21336 7.869685,1.24417 3.41126,1.32703 5.33244,2.40223 8.35196,4.67425 1.18181,0.88924 2.21152,1.35405 2.56106,1.15604 1.6175,-0.91621 6.97434,-5.37071 6.9836,-5.80725 0.006,-0.27588 -0.77485,-1.39515 -1.73493,-2.48724 -2.20065,-2.50329 -3.99231,-6.02062 -4.737,-9.299541 l -0.57799,-2.54501 -2.34837,-0.60099 c -3.52747,-0.90275 -5.50226,-2.07613 -8.07856,-4.8002 -1.82016,-1.92455 -2.53877,-3.13584 -3.27555,-5.52127 -1.127085,-3.649079 -1.228765,-6.683419 -0.251165,-7.494769 0.946345,-0.7854 3.340015,-0.0324 6.469365,2.03508 1.32751,0.87706 2.57206,1.59466 2.76565,1.59466 0.19359,0 0.45165,-1.3928 0.57344,-3.0951 0.35783,-5.00114 3.28009,-10.47172 5.59375,-10.47172 2.12952,0 6.06424,7.01902 6.06424,10.81778 0,0.98516 0.16066,1.8905 0.35703,2.01185 0.19634,0.12136 1.24167,-0.3735 2.32295,-1.09969 3.26699,-2.19414 7.07336,-2.88079 8.23118,-1.48485 1.01135,1.21936 0.76177,6.777589 -0.40535,9.027249 -1.51277,2.91589 -3.25384,4.76245 -4.3431,4.60624 -1.47265,-0.21119 -1.37045,-1.35773 0.34873,-3.91243 1.64953,-2.45119 2.5621,-6.099019 1.73314,-6.927969 -0.87963,-0.87963 -4.57394,1.28089 -7.56804,4.425989 -2.09102,2.19646 -3.07453,2.93031 -3.63763,2.71423 -0.67381,-0.25857 -0.72232,-0.65389 -0.38222,-3.1147 0.66014,-4.776479 0.3541,-7.896989 -1.04961,-10.702049 -0.69295,-1.38475 -1.4623,-2.51772 -1.70967,-2.51772 -0.24736,0 -0.92412,1.19553 -1.5039,2.65674 -1.28101,3.22848 -1.40319,7.20793 -0.33419,10.885129 0.58186,2.00159 0.63202,2.73363 0.22116,3.22869 -0.88953,1.07182 -1.64063,0.73838 -3.61732,-1.60588 -2.42719,-2.87848 -6.57584,-5.799089 -7.26235,-5.112599 -0.60037,0.60039 0.11313,3.100329 1.64851,5.775879 1.34646,2.34634 5.03657,4.5737 8.92529,5.38734 1.64297,0.34375 3.20506,0.75963 3.47129,0.92417 0.26623,0.16454 0.48405,1.16667 0.48405,2.22694 0,3.48494 1.62276,7.092501 5.08217,11.298241 l 1.0655,1.29536 4.48829,-2.15417 c 2.46857,-1.18479 5.51152,-2.42668 6.76212,-2.75974 3.40923,-0.90793 10.00339,-0.78395 12.22283,0.22983 2.42109,1.10589 5.51911,4.53841 5.89249,6.52874 0.62159,3.3133 -2.47579,7.50521 -6.75233,9.13844 -3.43167,1.31056 -9.0404,0.76232 -13.59395,-1.32878 -1.9802,-0.90934 -4.66787,-2.45934 -5.97261,-3.44443 -1.30476,-0.98511 -2.66418,-1.79109 -3.02094,-1.79109 -0.35676,0 -1.81835,0.96664 -3.24796,2.14808 -1.4296,1.18144 -3.11433,2.57436 -3.74382,3.09535 l -1.14453,0.94728 4.6318,5.04474 c 2.54749,2.7746 4.9344,5.04474 5.30424,5.04474 0.36983,0 2.33931,-0.79728 4.3766,-1.77174 5.75972,-2.75491 7.5151,-3.20276 12.55345,-3.20276 3.87949,0 4.82438,0.15418 6.65456,1.0858 2.55799,1.30212 3.88549,2.64971 4.82482,4.897859 0.91661,2.19373 0.88296,3.19038 -0.17788,5.2698 -2.10896,4.13389 -6.18774,6.16195 -11.74572,5.84021 -3.10693,-0.17986 -4.16539,-0.4851 -7.80849,-2.25179 -2.31791,-1.12406 -5.18277,-2.78654 -6.36637,-3.69442 -1.1836,-0.90788 -2.27307,-1.65069 -2.42104,-1.65069 -0.14797,0 -1.439,0.96664 -2.86894,2.14809 -1.42994,1.18144 -3.17647,2.5673 -3.88116,3.07969 l -1.28127,0.93162 4.41748,4.83429 c 2.42962,2.65886 4.61588,4.83427 4.85835,4.83427 0.24247,0 2.32288,-0.89725 4.62315,-1.99389 5.63907,-2.68843 7.42958,-3.13405 12.72448,-3.16698 4.88709,-0.0304 6.39593,0.44694 8.97186,2.8383 1.83014,1.69901 2.55994,3.32806 2.55994,5.714289 0,3.5611 -1.6246,5.67607 -5.87896,7.65352 -5.33524,2.47983 -12.75691,0.72843 -20.19362,-4.76539 -1.30852,-0.96665 -2.6074,-1.75757 -2.88638,-1.75757 -0.56335,0 -5.86256,4.48252 -5.86256,4.95905 0,0.16562 0.86488,0.78241 1.92196,1.37065 9.2156,5.12815 16.05329,11.19733 18.43381,16.36195 1.24611,2.70345 1.47464,3.72674 1.49371,6.68829 0.0199,3.09589 -0.16073,3.87997 -1.57683,6.84323 -2.56137,5.3598 -7.92747,10.27784 -16.0381,14.69894 -2.07355,1.13029 -3.89453,2.25644 -4.04663,2.50253 -0.15209,0.2461 0.92521,1.70651 2.39401,3.24535 3.39237,3.55418 5.2222,6.24394 7.19963,10.58312 2.21341,4.85699 3.00402,8.61414 2.7868,13.24338 -0.31815,6.78012 -3.62621,11.7005 -9.855,14.65825 -2.6172,1.24279 -3.46007,1.40932 -7.68786,1.5189 -4.09173,0.10606 -5.17429,-0.0299 -7.82814,-0.98333 z m 11.59856,-2.30518 c 7.98883,-2.08084 12.14757,-8.97681 10.52358,-17.45015 -1.29125,-6.73724 -4.4486,-12.73866 -9.32726,-17.72909 -3.56457,-3.64622 -3.12267,-3.68596 -10.09008,0.90757 -5.21945,3.44112 -7.79354,5.67673 -9.98957,8.67593 -4.776115,6.52293 -3.605525,16.81253 2.49683,21.94733 4.37716,3.68312 10.78002,5.1087 16.3865,3.64841 z m -16.05669,-83.22006 c 2.95737,-0.69719 8.66121,-3.17451 10.25125,-4.45237 0.89711,-0.721 0.89528,-0.73432 -0.22612,-1.64287 -0.62181,-0.50378 -2.89637,-1.8113 -5.05457,-2.9056 -4.59834,-2.33155 -8.452895,-2.981729 -12.417315,-2.09453 -2.78186,0.62255 -5.59171,2.90048 -5.59171,4.53317 0,2.83422 2.46402,5.34459 6.47779,6.59962 2.46684,0.77133 3.14651,0.76745 6.560675,-0.0374 z m 45.89803,-6.74972 c 4.75861,-2.30317 4.29809,-7.504039 -0.83657,-9.447679 -2.79014,-1.05617 -5.88929,-1.08691 -9.71159,-0.0964 -3.28286,0.8508 -9.04456,3.34785 -9.04456,3.91979 0,0.41945 4.15862,3.598729 5.87897,4.494479 4.39546,2.28865 10.31222,2.77607 13.71375,1.12972 z M 105.70396,89.928161 c 1.9898,-0.77676 4.21285,-1.89118 4.94012,-2.47646 l 1.3223,-1.06414 -2.75228,-1.86905 c -5.56455,-3.77882 -13.524975,-5.37495 -17.436055,-3.49607 -3.37614,1.62188 -3.79592,4.88333 -0.98971,7.68954 3.29445,3.29445 8.5038,3.7192 14.915625,1.21618 z m 41.73221,-5.56201 c 2.49991,-1.24024 4.03115,-3.58789 3.56129,-5.46005 -1.11771,-4.453249 -8.40813,-6.103199 -15.73697,-3.561539 -3.29531,1.142809 -6.84496,2.887409 -7.0292,3.454739 -0.17203,0.52967 4.86783,3.96514 7.31984,4.98965 5.21981,2.18098 8.3463,2.33283 11.88504,0.5772 z M 102.1505,69.362032 c 4.14073,-1.20384 7.55417,-2.93434 7.7392,-3.92355 0.16371,-0.87524 -3.48291,-3.33821 -7.17289,-4.84468 -3.787795,-1.54639 -9.478425,-1.93755 -12.332215,-0.84768 -5.06591,1.93469 -3.47868,7.69342 2.75059,9.97963 2.51287,0.92226 4.927,0.82487 9.015315,-0.36372 z m 42.21123,-5.5399 c 6.05997,-1.79962 7.12406,-7.22344 1.91215,-9.74648 -2.99094,-1.44789 -6.03827,-1.57186 -10.46061,-0.42553 -4.05722,1.05168 -9.08073,3.36202 -9.08073,4.17625 0,1.23541 6.19756,4.79023 10.16631,5.83126 3.95982,1.03866 4.48057,1.05014 7.46288,0.1645 z"
       id="path51"
       inkscape:connector-curvature="0"
       sodipodi:nodetypes="sssssscsssssssssssssssssscsssssssssscsssssssssssssssscsscssssssssssssssssssssssssssssssscsssssssssscssssssssssssscsssssssssssssssssssssssssssssssssssssssssssssssssssssssssssssssssssssss" />
    <path
       d="m 40.583816,228.52467 h -1.4187 l -0.98167,-2.79035 h -4.330053 l -0.981664,2.79035 h -1.351462 l 3.644247,-10.01161 h 1.775056 z m -2.810509,-3.93337 -1.754886,-4.91505 -1.761608,4.91505 z m 15.322839,3.19376 c -0.54685,0.25101 -1.14526,0.47064 -1.79522,0.65891 -0.64548,0.1838 -1.27078,0.27569 -1.87591,0.27569 -0.77995,0 -1.49491,-0.10758 -2.14486,-0.32274 -0.64996,-0.21517 -1.20355,-0.53791 -1.66076,-0.96822 -0.4617,-0.4348 -0.81804,-0.97721 -1.06907,-1.62715 -0.25102,-0.65444 -0.37652,-1.4187 -0.37652,-2.29278 0,-1.60022 0.46617,-2.86205 1.39853,-3.78543 0.93683,-0.92787 2.22106,-1.3918 3.85268,-1.3918 0.56927,0 1.14975,0.0695 1.74143,0.20842 0.59617,0.13446 1.23716,0.36532 1.92298,0.69256 v 1.58007 h -0.12102 c -0.13896,-0.10757 -0.34067,-0.24878 -0.60514,-0.42362 -0.26446,-0.17481 -0.52445,-0.32049 -0.77995,-0.43702 -0.30929,-0.13897 -0.66116,-0.25329 -1.05561,-0.34293 -0.38998,-0.0941 -0.83375,-0.14118 -1.3313,-0.14118 -1.12062,0 -2.00815,0.36082 -2.66259,1.0825 -0.64996,0.71721 -0.97493,1.68991 -0.97493,2.9181 0,1.29542 0.34066,2.304 1.02199,3.02567 0.68134,0.71718 1.60922,1.07579 2.78361,1.07579 0.43032,0 0.8584,-0.0426 1.28424,-0.12777 0.43032,-0.0851 0.80684,-0.19498 1.12958,-0.32944 v -2.45415 h -2.68276 v -1.16995 h 4.0006 z m 12.04466,0.73961 h -6.59596 v -10.01161 h 6.59596 v 1.18338 h -5.26466 v 2.74327 h 5.26466 v 1.18338 h -5.26466 v 3.7182 h 5.26466 z m 12.39131,0 h -1.6473 l -4.74694,-8.95598 v 8.95598 h -1.24388 v -10.01161 h 2.06417 l 4.33006,8.17604 v -8.17604 h 1.24389 z m 12.37974,0 h -7.81294 v -1.23718 l 6.13874,-7.59105 h -5.91014 v -1.18338 h 7.43642 v 1.20356 l -6.19925,7.62467 h 6.34717 z m 7.56932,0 h -3.95354 v -1.02202 h 1.31113 v -7.96758 h -1.31113 v -1.02201 h 3.95354 v 1.02201 h -1.31112 v 7.96758 h 1.31112 z m 12.321094,0 h -1.41869 l -0.98167,-2.79035 h -4.33006 l -0.98166,2.79035 h -1.35146 l 3.64424,-10.01161 h 1.77506 z m -2.8105,-3.93337 -1.75488,-4.91505 -1.76161,4.91505 z m 20.02569,3.2072 c -0.24654,0.10756 -0.47066,0.20844 -0.67238,0.30258 -0.19722,0.0942 -0.4572,0.19274 -0.77994,0.29584 -0.27343,0.0851 -0.57151,0.15687 -0.89426,0.21513 -0.31825,0.0628 -0.67013,0.0942 -1.05562,0.0942 -0.72616,0 -1.38732,-0.10085 -1.98349,-0.30255 -0.59168,-0.20621 -1.10717,-0.52669 -1.54645,-0.96151 -0.43032,-0.42583 -0.7665,-0.96595 -1.00856,-1.6204 -0.24205,-0.65894 -0.36307,-1.4232 -0.36307,-2.29278 0,-0.82477 0.11654,-1.56216 0.34963,-2.21211 0.23308,-0.64994 0.56927,-1.19906 1.00855,-1.6473 0.42584,-0.4348 0.93908,-0.76651 1.53973,-0.99512 0.60513,-0.22859 1.27526,-0.34288 2.01038,-0.34288 0.5379,0 1.07356,0.065 1.60697,0.19498 0.5379,0.13001 1.13407,0.35861 1.78851,0.68581 v 1.58007 h -0.10086 c -0.55135,-0.4617 -1.0982,-0.79787 -1.64059,-1.00854 -0.54237,-0.21067 -1.12286,-0.31602 -1.74144,-0.31602 -0.50651,0 -0.96372,0.0829 -1.37162,0.24878 -0.40343,0.16138 -0.76427,0.41463 -1.08252,0.75977 -0.3093,0.3362 -0.55135,0.76204 -0.72616,1.27751 -0.17033,0.51098 -0.2555,1.10268 -0.2555,1.77505 0,0.70375 0.0941,1.30885 0.2824,1.8154 0.19274,0.50654 0.43928,0.91891 0.7396,1.23715 0.31377,0.3317 0.67909,0.57824 1.09596,0.73961 0.42135,0.1569 0.86512,0.23536 1.33129,0.23536 0.641,0 1.24165,-0.10983 1.80196,-0.3295 0.56031,-0.21964 1.08476,-0.54909 1.57334,-0.98836 h 0.0942 z m 13.28854,0.72617 h -1.72799 l -3.3484,-3.98045 h -1.87592 v 3.98045 h -1.3313 v -10.01161 h 2.80379 c 0.60513,0 1.10942,0.0404 1.51284,0.12103 0.40341,0.0762 0.76649,0.21518 1.08924,0.41688 0.36307,0.2286 0.64547,0.51772 0.84718,0.86736 0.20619,0.34514 0.30929,0.78445 0.30929,1.31785 0,0.72168 -0.18154,1.32678 -0.54462,1.81538 -0.36308,0.48411 -0.86287,0.84943 -1.49939,1.09597 z m -3.11308,-7.19436 c 0,-0.2869 -0.0516,-0.54016 -0.15464,-0.75979 -0.0986,-0.22411 -0.26447,-0.41237 -0.49756,-0.56481 -0.19274,-0.13 -0.42135,-0.21963 -0.68581,-0.26894 -0.26447,-0.0538 -0.576,-0.0806 -0.9346,-0.0806 h -1.56662 v 3.77871 h 1.34474 c 0.42135,0 0.78892,-0.0358 1.10269,-0.1076 0.31377,-0.0762 0.58048,-0.21513 0.80012,-0.41684 0.20172,-0.18826 0.34963,-0.40344 0.44376,-0.64547 0.0987,-0.24653 0.14792,-0.55809 0.14792,-0.9346 z m 13.16157,7.19436 h -6.59594 v -10.01161 h 6.59594 v 1.18338 h -5.26466 v 2.74327 h 5.26466 v 1.18338 h -5.26466 v 3.7182 h 5.26466 z m 13.36736,0 h -1.41871 l -0.98167,-2.79035 h -4.33005 l -0.98167,2.79035 h -1.35146 l 3.64425,-10.01161 h 1.77505 z m -2.81051,-3.93337 -1.7549,-4.91505 -1.76161,4.91505 z m 13.78607,-4.89486 h -3.57701 v 8.82823 h -1.33129 v -8.82823 h -3.577 v -1.18338 h 8.4853 z m 7.27646,8.82823 h -3.95354 v -1.02202 h 1.31112 v -7.96758 h -1.31112 v -1.02201 h 3.95354 v 1.02201 h -1.31112 v 7.96758 h 1.31112 z m 12.80145,-10.01161 -3.64424,10.01161 h -1.77507 l -3.64424,-10.01161 h 1.42542 l 3.13998,8.80805 3.13997,-8.80805 z m 13.09277,10.01161 h -1.4187 l -0.98165,-2.79035 h -4.33007 l -0.98166,2.79035 h -1.35146 l 3.64424,-10.01161 h 1.77505 z m -2.8105,-3.93337 -1.75488,-4.91505 -1.76161,4.91505 z"
       id="text3"
       style="font-size:39.77389908px;line-height:1.25;-inkscape-font-specification:'sans-serif, ';white-space:pre;fill:#ffffff;stroke-width:0.34621045"
       aria-label="AGENZIA CREATIVA"
       sodipodi:nodetypes="cccccccccccccccssccsssccccsccscscsccccccccccccccccccccccccccccccccccccccccccccccccccccccccccccccccccccccccscccssccsccccsscccscccssccccccccccscccscccscccsccscccsccccccccccccccccccccccccccccccccccccccccccccccccccccccccccccccccccccc"
       inkscape:connector-curvature="0" />
    <path
       sodipodi:nodetypes="sssssscsssssssssssssssssssssssssssssssssssssssssssssssssssssssssssssssssscssssssssscssssscssssssssssssscssssssssssssscsssscsssssssssscssc"
       inkscape:connector-curvature="0"
       id="path4879"
       d="m 31.831221,338.23919 c -1.922973,-1.30814 -2.59387,-2.63429 -2.59387,-5.12703 0,-5.61786 3.798557,-11.9922 11.565307,-19.40755 5.303071,-5.06314 14.404059,-11.60426 22.330379,-16.04943 1.165061,-0.65337 2.318374,-1.58602 2.666066,-2.15596 1.93477,-3.17147 6.861242,-16.54636 8.553219,-23.22117 3.230848,-12.74561 2.624065,-21.29205 -1.713572,-24.13544 -2.729941,-1.78952 -5.423631,-2.07937 -9.019588,-0.97054 -2.982941,0.91981 -4.676184,1.8139 -7.727382,4.08032 -6.995566,5.19627 -12.62737,14.30877 -13.787742,22.30919 -0.614774,4.2385 0.622495,8.17533 3.661415,11.65034 1.172698,1.34099 1.221554,2.71549 0.135144,3.8019 -1.029335,1.02935 -2.138153,1.00512 -3.421492,-0.0748 -1.910508,-1.60757 -3.220291,-6.23378 -3.220291,-11.37405 0,-8.60366 3.706937,-16.43233 11.792097,-24.90372 3.607381,-3.77969 6.83608,-6.26731 10.302501,-7.93776 8.345311,-4.02157 14.742835,-2.14957 16.943439,4.95785 0.858873,2.77397 0.749809,12.75391 -0.19614,17.94646 -1.32837,7.2918 -4.020903,16.76457 -6.691497,23.54182 -0.330295,0.83819 -0.510901,1.61362 -0.401343,1.72318 0.109557,0.10956 2.357477,-1.025 4.99536,-2.52125 2.637897,-1.49625 5.865142,-3.27915 7.171659,-3.96202 1.986358,-1.03816 2.486114,-1.46923 3.050743,-2.6314 1.114931,-2.29485 3.863887,-3.07469 4.783207,-1.35692 0.290879,0.54351 0.215319,1.32311 -0.35951,3.70951 -0.709828,2.94686 -0.713695,3.05826 -0.15678,4.51653 0.471663,1.23501 0.813466,1.6024 1.964562,2.11158 1.602585,0.70891 2.952108,0.52882 6.333431,-0.84513 2.975597,-1.20909 9.274827,-5.63787 9.341687,-6.56782 0.24433,-3.39843 0.66937,-4.31103 2.39001,-5.13154 1.36445,-0.65066 2.66591,-0.35558 3.15373,0.71504 0.31162,0.68393 0.25724,0.91782 -0.36814,1.58352 -0.40357,0.42958 -0.63518,0.94055 -0.5147,1.13549 0.12048,0.19494 1.11766,0.80339 2.21596,1.35213 2.94791,1.47282 3.45164,2.03679 3.45164,3.86447 0,1.15926 -0.36264,2.28128 -1.49282,4.61899 -1.63948,3.39113 -1.69286,4.35147 -0.27773,4.99625 1.72638,0.7866 3.82196,0.21787 7.01669,-1.90428 2.86281,-1.90166 10.91529,-10.17647 12.08755,-12.42129 1.02073,-1.95462 2.49898,-2.95649 3.85875,-2.6152 1.4323,0.35948 1.58422,1.25349 0.78023,4.59126 -0.70984,2.94686 -0.7137,3.05826 -0.15678,4.51653 0.47166,1.23501 0.81346,1.6024 1.96456,2.11158 1.17304,0.51889 1.63048,0.56334 2.89077,0.28091 2.49306,-0.5587 5.24746,-1.82242 8.02746,-3.68298 3.77697,-2.52779 4.92698,-3.75937 5.56019,-5.95446 2.44196,-8.46543 5.45451,-16.21609 9.07851,-23.35716 4.00343,-7.88873 6.50571,-10.62905 9.71732,-10.64168 1.09157,-0.004 1.48456,0.16508 2.05008,0.88367 1.07146,1.36144 0.80459,5.18632 -0.60334,8.64756 -1.89532,4.65944 -6.9196,13.07967 -11.42766,19.15167 -1.16525,1.5695 -1.03874,2.06592 0.28757,1.12845 1.68085,-1.18806 6.22761,-3.3121 7.8218,-3.65399 2.05477,-0.44067 3.78352,0.19235 4.11326,1.50616 0.30025,1.19624 -0.4637,1.70247 -2.57174,1.70418 -3.65236,0.003 -8.90492,2.35848 -13.09898,5.87428 -1.81837,1.5243 -2.28631,2.14518 -3.16731,4.20255 -0.56856,1.3277 -1.04401,2.74132 -1.05658,3.14137 -0.02,0.63812 0.1375,0.72737 1.28387,0.72737 3.36808,0 9.35474,-1.82516 18.01533,-5.49234 5.27121,-2.232 5.52342,-2.38069 6.06126,-3.57343 0.97253,-2.15667 3.8141,-2.89898 4.70744,-1.22975 0.29088,0.54351 0.21532,1.32311 -0.35951,3.70951 -0.70982,2.94686 -0.71369,3.05826 -0.15678,4.51653 0.47165,1.23501 0.81346,1.6024 1.96457,2.11158 1.17304,0.51889 1.63047,0.56334 2.89076,0.28091 3.89749,-0.87344 9.02991,-3.85427 12.52743,-7.27574 1.33989,-1.31074 2.06369,-1.79129 2.5862,-1.71707 2.77346,0.39397 -2.41882,5.95276 -8.32852,8.9164 -3.58223,1.79645 -5.62459,2.33959 -8.79748,2.33959 -2.82661,0 -4.50112,-0.54274 -5.6289,-1.82442 -0.71784,-0.81582 -1.89648,-3.20309 -1.89648,-3.84124 0,-0.28546 -0.14694,-0.7936 -0.32654,-1.12919 -0.31237,-0.58367 -0.46321,-0.56026 -3.47519,0.53927 -7.33835,2.67887 -14.65562,4.71348 -19.43076,5.40284 l -2.7261,0.39354 -0.76774,2.57333 c -2.1249,7.12232 -2.86845,14.17252 -1.87988,17.82461 0.49838,1.84115 0.8677,2.45503 2.48103,4.12395 1.04251,1.07843 1.85453,2.174 1.80448,2.43459 -0.05,0.26059 -0.49037,0.69701 -0.97847,0.96982 -0.81714,0.4567 -0.98272,0.44477 -2.08898,-0.15052 -0.66084,-0.3556 -1.53363,-1.14131 -1.93957,-1.74601 -1.33257,-1.9851 -1.54554,-3.38143 -1.53333,-10.05346 0.0101,-5.53197 0.12315,-6.8926 0.92312,-11.11235 l 0.91158,-4.80851 -0.84231,-0.78103 c -0.46326,-0.42957 -0.84229,-0.99336 -0.84229,-1.25285 0,-0.70386 -0.77989,-0.57699 -2.83786,0.46164 -2.82558,1.42604 -5.06973,1.97599 -8.06335,1.97599 -4.03145,0 -5.72382,-1.04263 -7.09177,-4.36907 -0.32738,-0.79608 -0.71506,-1.44797 -0.86149,-1.44864 -0.14645,-7.1e-4 -1.01929,0.82471 -1.93965,1.83416 -2.87974,3.15854 -7.35474,6.83264 -10.06483,8.26351 -2.47803,1.30837 -2.73116,1.37278 -5.40365,1.375 -3.11762,0.003 -3.97377,-0.38388 -5.35882,-2.41894 -1.06212,-1.56058 -1.01128,-4.95765 0.11375,-7.60021 1.26728,-2.97667 1.28055,-3.0711 0.43181,-3.0711 -0.40816,0 -1.22546,-0.17477 -1.8162,-0.38838 -1.01771,-0.36802 -1.13769,-0.32841 -2.28587,0.75468 -3.16642,2.98695 -7.29318,5.43206 -11.051896,6.54827 -2.543759,0.75542 -6.813707,0.69609 -8.407128,-0.11681 -1.824302,-0.93069 -3.1428,-2.91143 -3.718037,-5.58548 -0.105182,-0.48895 -0.347115,-0.889 -0.537636,-0.889 -0.308856,0 -9.485695,5.00571 -14.223267,7.75839 l -1.8127,1.05324 -2.058296,4.68962 c -2.73608,6.23387 -9.720969,19.63437 -12.106355,23.22603 -1.190808,1.79299 -3.432153,4.39654 -5.959993,6.92317 -3.571857,3.57015 -4.395254,4.21969 -6.955996,5.48727 -2.715798,1.34435 -3.104363,1.44547 -5.980536,1.55639 -2.808596,0.10828 -3.173732,0.0521 -4.199779,-0.64587 z M 37.064574,333.13 c 0.940133,-0.35336 2.961864,-1.58431 4.492761,-2.73547 5.408924,-4.06725 9.554699,-9.26333 16.095541,-20.17327 4.146774,-6.9167 5.090556,-8.6749 4.808155,-8.95731 -0.488506,-0.4885 -10.67921,7.09836 -16.039002,11.94086 -8.394804,7.58461 -14.379207,16.28865 -13.246862,19.26695 0.565715,1.48796 1.335347,1.61821 3.889407,0.65824 z M 167.58533,273.23957 c 4.40487,-6.87705 8.74129,-14.88137 8.74129,-16.135 0,-1.05674 -0.58226,-0.6387 -2.12856,1.52824 -2.21801,3.10826 -4.13187,6.59406 -5.74427,10.46227 -1.68856,4.05098 -1.95843,4.87185 -1.60164,4.87185 0.14701,0 0.47694,-0.32732 0.73318,-0.72736 z m -78.732287,5.41719 c -0.7017,-1.07095 -0.381943,-2.24308 0.984729,-3.60975 1.397682,-1.39768 2.963288,-1.5134 3.282245,-0.24261 0.732539,2.91867 -2.793118,6.10173 -4.266974,3.85236 z m 49.784067,0 c -0.7017,-1.07095 -0.38195,-2.24308 0.98473,-3.60975 1.39768,-1.39768 2.96329,-1.5134 3.28224,-0.24261 0.73253,2.91867 -2.79311,6.10173 -4.26697,3.85236 z m 49.13753,0 c -0.7017,-1.07095 -0.38196,-2.24308 0.98473,-3.60975 1.39767,-1.39768 2.96328,-1.5134 3.28223,-0.24261 0.73255,2.91867 -2.79311,6.10173 -4.26696,3.85236 z"
       style="display:inline;fill:#ffffff;fill-opacity:1;stroke-width:0.32327294" />
  </g>
</svg>
